<?xml version="1.0" ?><svg viewBox="0 0 128 128" xmlns="http://www.w3.org/2000/svg"><defs><style>.cls-1{fill:#333;}.cls-2{fill:#1f1f1f;}.cls-3{fill:#ffc219;}.cls-4{fill:#ffda75;}.cls-5{fill:#f47c27;}.cls-6{fill:#fff;}.cls-7{fill:#ccc;}.cls-8{fill:#f2f2f2;}.cls-9{fill:#b3b3b3;}.cls-10{fill:#4d91bb;}.cls-11{fill:#7aaccc;}.cls-12{fill:#2175aa;}</style></defs><title/><g data-name="17 School Bus" id="_17_School_Bus"><path class="cls-1" d="M40.31,106a6,6,0,0,1-6,6h-4a6,6,0,0,1-6-6V93.92h16ZM104,93.92H88V106a6,6,0,0,0,6,6h4a6,6,0,0,0,6-6Z"/><path class="cls-2" d="M39.09,97.6H24.31l12.84,1.61a2.2,2.2,0,0,1,1.93,2.19v3.38a6,6,0,0,1-6,6c-4.12,0-5.62.27-7.58-1.19A6,6,0,0,0,30.31,112h4a6,6,0,0,0,6-6V93.92H39.09Z"/><path class="cls-2" d="M102.73,93.92V97.6H88l13.41,1.68a1.52,1.52,0,0,1,1.33,1.5v4a6,6,0,0,1-6,6h-4a6,6,0,0,1-3.58-1.19A6,6,0,0,0,94,112h4a6,6,0,0,0,6-6V93.92Z"/><path class="cls-3" d="M30.62,16H97.38A11.62,11.62,0,0,1,109,27.62V90.19A5.81,5.81,0,0,1,103.19,96H24.81A5.81,5.81,0,0,1,19,90.19V27.62A11.62,11.62,0,0,1,30.62,16Z"/><path class="cls-4" d="M20.75,90.19V27.62A11.62,11.62,0,0,1,32.37,16H30.62A11.62,11.62,0,0,0,19,27.62V90.19A5.81,5.81,0,0,0,24.81,96h1.75A5.81,5.81,0,0,1,20.75,90.19Z"/><path class="cls-5" d="M97.38,16h-3A11.62,11.62,0,0,1,106,27.62V84.55a4.05,4.05,0,0,1-3.37,4l-6.15,1H106c0,4.29-2.9,6.4-5.81,6.4h3A5.81,5.81,0,0,0,109,90.19V27.62A11.62,11.62,0,0,0,97.38,16Z"/><path class="cls-5" d="M40.24,78.92A6.92,6.92,0,1,1,33.31,72,6.92,6.92,0,0,1,40.24,78.92ZM97,72a6.92,6.92,0,1,0,6.92,6.92A6.92,6.92,0,0,0,97,72Z"/><path class="cls-6" d="M39.24,77.92A6.92,6.92,0,1,1,32.31,71,6.92,6.92,0,0,1,39.24,77.92ZM96,71a6.92,6.92,0,1,0,6.92,6.92A6.92,6.92,0,0,0,96,71Z"/><path class="cls-1" d="M76,75.92H52c-4,0-4-6,0-6H76C80,69.92,80,75.92,76,75.92Zm0,4H52c-4,0-4,6,0,6H76C80,85.92,80,79.92,76,79.92Z"/><path class="cls-2" d="M52.5,80.42c26,0,24.71-.25,25.85.65C77.09,79.49,78,79.92,52,79.92a3,3,0,0,0-1.85,5.35A3,3,0,0,1,52.5,80.42Z"/><path class="cls-2" d="M50.15,75.27a3,3,0,0,1,2.35-4.85h24a3,3,0,0,1,1.85.65A3,3,0,0,0,76,69.92H52A3,3,0,0,0,50.15,75.27Z"/><path class="cls-7" d="M108,89.6H20c-5.32,0-5.33,8,0,8h88C113.32,97.6,113.33,89.6,108,89.6Z"/><path class="cls-8" d="M20,90.25h88a4,4,0,0,1,4,3.67,4,4,0,0,0-4-4.33H20a4,4,0,0,0-4,4.33A4,4,0,0,1,20,90.25Z"/><path class="cls-9" d="M110.19,90.25a4,4,0,0,1-3.34,6.19c-95.2,0-88.74.3-90.19-.66,1.7,2.58-3.53,1.81,91.34,1.81A4,4,0,0,0,110.19,90.25Z"/><path class="cls-10" d="M57,31.25H19v32H57a4,4,0,0,0,4-4v-24A4,4,0,0,0,57,31.25Z"/><rect class="cls-11" height="32" width="1.75" x="19" y="31.25"/><path class="cls-10" d="M67,35.25v24a4,4,0,0,0,4,4h38v-32H71A4,4,0,0,0,67,35.25Z"/><path class="cls-12" d="M67.79,59.25v-24a4,4,0,0,1,4-4H71a4,4,0,0,0-4,4v24a4,4,0,0,0,4,4h.79A4,4,0,0,1,67.79,59.25Z"/><path class="cls-12" d="M60.21,59.25v-24a4,4,0,0,0-4-4H57a4,4,0,0,1,4,4v24a4,4,0,0,1-4,4h-.79A4,4,0,0,0,60.21,59.25Z"/><rect class="cls-12" height="32" width="3" x="106" y="31.25"/></g></svg>